<?xml version="1.0" encoding="UTF-8" standalone="no"?>
<!-- Created with Inkscape (http://www.inkscape.org/) -->

<svg
   width="293.81888mm"
   height="168.33475mm"
   viewBox="0 0 293.81888 168.33475"
   version="1.1"
   id="svg1"
   inkscape:version="1.4.3 (0d15f75042, 2025-12-25)"
   sodipodi:docname="preview-symbolic.svg"
   xmlns:inkscape="http://www.inkscape.org/namespaces/inkscape"
   xmlns:sodipodi="http://sodipodi.sourceforge.net/DTD/sodipodi-0.dtd"
   xmlns="http://www.w3.org/2000/svg"
   xmlns:svg="http://www.w3.org/2000/svg">
  <style
     id="style2">#text1 { class:error; }
#rect5 { 
    class:question;
}
#rect2 { class:warning; }
#rect1 { 
    class:success;
}
</style>
  <sodipodi:namedview
     id="namedview1"
     pagecolor="#ffffff"
     bordercolor="#000000"
     borderopacity="0.25"
     inkscape:showpageshadow="2"
     inkscape:pageopacity="0.0"
     inkscape:pagecheckerboard="0"
     inkscape:deskcolor="#d1d1d1"
     inkscape:document-units="mm"
     inkscape:zoom="0.64693625"
     inkscape:cx="1145.3988"
     inkscape:cy="360.93201"
     inkscape:window-width="2304"
     inkscape:window-height="1230"
     inkscape:window-x="0"
     inkscape:window-y="0"
     inkscape:window-maximized="1"
     inkscape:current-layer="svg1" />
  <defs
     id="defs1">
    <linearGradient
       id="swatch7"
       inkscape:swatch="solid">
      <stop
         style="stop-color:#2b918d;stop-opacity:1;"
         offset="0"
         id="stop7" />
    </linearGradient>
    <linearGradient
       id="swatch6"
       inkscape:swatch="solid">
      <stop
         style="stop-color:#4ec577;stop-opacity:1;"
         offset="0"
         id="stop6" />
    </linearGradient>
    <linearGradient
       id="swatch5"
       inkscape:swatch="solid">
      <stop
         style="stop-color:#4ec577;stop-opacity:1;"
         offset="0"
         id="stop5" />
    </linearGradient>
    <rect
       x="148.64915"
       y="264.50806"
       width="60.157303"
       height="13.852197"
       id="rect4" />
    <rect
       x="162.85826"
       y="275.43814"
       width="128.97501"
       height="27.325211"
       id="rect3" />
  </defs>
  <rect
     id="rect1"
     width="209.37488"
     height="119.43622"
     x="3.3229868"
     y="48.898529"
     class="success"
     style="stroke-width:1.1366"
     ry="6.3391743" />
  <rect
     id="rect1-6"
     width="293.81888"
     height="7.2297912"
     x="0"
     y="0"
     class="success"
     style="stroke-width:0.331269" />
  <rect
     id="rect2"
     width="171.55075"
     height="97.811295"
     x="37.771347"
     y="62.871574"
     class="warning"
     style="stroke-width:1.10491" />
  <rect
     id="rect2-5"
     width="145.52347"
     height="5.2699113"
     x="50.972427"
     y="54.265034"
     class="warning"
     style="stroke-width:0.236213" />
  <rect
     id="rect1-61"
     width="96.582588"
     height="93.635025"
     x="108.35159"
     y="9.9815197"
     class="success"
     style="stroke-width:0.683512"
     ry="6.1903629" />
  <rect
     id="rect2-0"
     width="40.899639"
     height="8.1603556"
     x="113.46665"
     y="23.131454"
     class="warning"
     style="stroke-width:0.278305"
     ry="0.96861029" />
  <rect
     id="rect1-61-0"
     width="68.976524"
     height="53.555084"
     x="222.73067"
     y="7.6270566"
     class="success"
     style="stroke-width:0.433891"
     ry="5.6626759" />
  <rect
     id="rect5"
     width="0.60240483"
     height="92.051285"
     x="166.95029"
     y="10.177245"
     ry="5.9199109"
     rx="0"
     class="question"
     style="stroke-width:0.491761" />
  <rect
     id="rect5-5"
     width="36.489456"
     height="8.9322596"
     x="226.83952"
     y="25.493603"
     ry="4.4661298"
     class="question"
     style="stroke-width:0.433891" />
  <rect
     id="rect5-5-9"
     width="36.489456"
     height="8.9322596"
     x="226.90959"
     y="12.542929"
     ry="4.4661298"
     class="question"
     style="stroke-width:0.433891" />
  <path
     id="text1"
     style="white-space:pre;fill-opacity:1;stroke-width:0.624365"
     class="error"
     d="m 61.698586,88.537752 h 4.130919 v 0.69571 h -1.733483 v 5.414224 h -0.663954 v -5.414224 h -1.733482 z m 6.737681,3.629944 v 0.368319 h -2.767028 q 0.03924,0.777544 0.372862,1.186793 0.336887,0.405143 0.935426,0.405143 0.3467,0 0.670496,-0.106415 0.327074,-0.106413 0.647604,-0.319206 v 0.712074 q -0.323802,0.171884 -0.663954,0.261916 -0.340158,0.09008 -0.690123,0.09008 -0.876551,0 -1.390059,-0.638413 -0.51023,-0.638413 -0.51023,-1.726984 0,-1.125409 0.484067,-1.784276 0.487339,-0.662974 1.311559,-0.662974 0.739184,0 1.167649,0.597493 0.431731,0.593386 0.431731,1.616486 z m -0.60181,-0.220984 q -0.0066,-0.617947 -0.278014,-0.986264 -0.268199,-0.368318 -0.713013,-0.368318 -0.503695,0 -0.807872,0.356031 -0.300904,0.356042 -0.346693,1.002635 z m 4.516865,-1.882498 -1.324642,2.23035 1.393324,2.353122 H 71.71026 l -1.066256,-1.800656 -1.066251,1.800656 h -0.709749 l 1.422764,-2.398138 -1.301746,-2.185334 h 0.709743 l 0.971407,1.632857 0.971401,-1.632857 z m 1.514343,-1.301378 v 1.301378 h 1.239602 v 0.585207 h -1.239602 v 2.48817 q 0,0.560655 0.121012,0.720265 0.124292,0.159596 0.500425,0.159596 h 0.618165 v 0.630234 h -0.618165 q -0.696666,0 -0.961595,-0.323301 -0.264928,-0.327386 -0.264928,-1.186794 v -2.48817 h -0.441543 v -0.585207 h 0.441543 v -1.301378 z m 6.796555,1.477347 v 0.703894 q -0.255116,-0.17598 -0.513502,-0.261915 -0.255121,-0.09008 -0.516778,-0.09008 -0.585454,0 -0.909256,0.466541 -0.323803,0.462433 -0.323803,1.301375 0,0.83893 0.323803,1.305471 0.323802,0.462434 0.909256,0.462434 0.261657,0 0.516778,-0.08594 0.258386,-0.09008 0.513502,-0.265999 v 0.695702 q -0.251843,0.147323 -0.523316,0.220985 -0.268199,0.07363 -0.572374,0.07363 -0.827497,0 -1.31483,-0.650689 -0.487338,-0.650688 -0.487338,-1.755629 0,-1.121313 0.490608,-1.76382 0.493876,-0.642498 1.350807,-0.642498 0.278012,0 0.542941,0.07363 0.264924,0.0696 0.513502,0.212794 z m 2.466124,0.351947 q -0.484069,0 -0.765353,0.47472 -0.281279,0.470613 -0.281279,1.293185 0,0.822572 0.278009,1.297291 0.281285,0.470625 0.768623,0.470625 0.48079,0 0.762075,-0.474721 0.281284,-0.474719 0.281284,-1.293195 0,-0.814381 -0.281284,-1.28909 -0.281285,-0.478815 -0.762075,-0.478815 z m 0,-0.638413 q 0.784972,0 1.233059,0.638413 0.448085,0.638412 0.448085,1.767905 0,1.125407 -0.448085,1.767916 -0.448087,0.638413 -1.233059,0.638413 -0.788244,0 -1.236336,-0.638413 -0.444815,-0.642509 -0.444815,-1.767916 0,-1.129493 0.444815,-1.767905 0.448092,-0.638413 1.236336,-0.638413 z m 2.678714,-1.673786 h 0.601816 v 6.367755 h -0.601816 z m 3.280537,2.312199 q -0.484069,0 -0.765353,0.47472 -0.281278,0.470613 -0.281278,1.293185 0,0.822572 0.278007,1.297291 0.281284,0.470625 0.768624,0.470625 0.480795,0 0.762075,-0.474721 0.281287,-0.474719 0.281287,-1.293195 0,-0.814381 -0.281287,-1.28909 -0.28128,-0.478815 -0.762075,-0.478815 z m 0,-0.638413 q 0.784972,0 1.233054,0.638413 0.448092,0.638412 0.448092,1.767905 0,1.125407 -0.448092,1.767916 -0.448082,0.638413 -1.233054,0.638413 -0.788245,0 -1.236337,-0.638413 -0.444815,-0.642509 -0.444815,-1.767916 0,-1.129493 0.444815,-1.767905 0.448092,-0.638413 1.236337,-0.638413 z m 4.801419,0.81438 q -0.101411,-0.07363 -0.222414,-0.106412 -0.117747,-0.03682 -0.261656,-0.03682 -0.510232,0 -0.784979,0.417429 -0.271471,0.413334 -0.271471,1.190889 v 2.414498 H 91.743422 V 90.06422 h 0.605072 v 0.712074 q 0.189712,-0.417429 0.493886,-0.617947 0.304173,-0.204614 0.739185,-0.204614 0.06215,0 0.137369,0.01231 0.07527,0.008 0.166805,0.02865 z" />
  <path
     id="text1-20"
     style="white-space:pre;fill-opacity:1;stroke-width:0.624365"
     class="error"
     d="m 140.24682,0.59180378 h 4.13092 V 1.2875138 h -1.73348 v 5.414224 h -0.66396 v -5.414224 h -1.73348 z m 6.73768,3.62994402 v 0.368319 h -2.76703 q 0.0392,0.777544 0.37287,1.186793 0.33688,0.405143 0.93542,0.405143 0.3467,0 0.6705,-0.106415 0.32707,-0.106413 0.6476,-0.319206 v 0.712074 q -0.3238,0.171884 -0.66395,0.261916 -0.34016,0.09008 -0.69013,0.09008 -0.87655,0 -1.39005,-0.638413 -0.51023,-0.638413 -0.51023,-1.726984 0,-1.125409 0.48406,-1.784276 0.48734,-0.662974 1.31156,-0.662974 0.73919,0 1.16765,0.597493 0.43173,0.593386 0.43173,1.616486 z m -0.60181,-0.220984 q -0.007,-0.617947 -0.27801,-0.986264 -0.2682,-0.368318 -0.71302,-0.368318 -0.50369,0 -0.80787,0.356031 -0.3009,0.356042 -0.34669,1.002635 z m 4.51687,-1.882498 -1.32465,2.23035 1.39333,2.353122 h -0.70975 l -1.06625,-1.800656 -1.06625,1.800656 h -0.70975 l 1.42276,-2.398138 -1.30174,-2.185334 h 0.70974 l 0.97141,1.632857 0.9714,-1.632857 z M 152.4139,0.81688778 V 2.1182658 h 1.2396 v 0.585207 h -1.2396 v 2.48817 q 0,0.560655 0.12101,0.720265 0.12429,0.159596 0.50043,0.159596 h 0.61816 v 0.630234 h -0.61816 q -0.69667,0 -0.9616,-0.323301 -0.26493,-0.327386 -0.26493,-1.186794 v -2.48817 h -0.44154 v -0.585207 h 0.44154 V 0.81688778 Z m 6.79655,1.47734702 v 0.703894 q -0.25511,-0.17598 -0.5135,-0.261915 -0.25512,-0.09008 -0.51678,-0.09008 -0.58545,0 -0.90925,0.466541 -0.3238,0.462433 -0.3238,1.301375 0,0.83893 0.3238,1.305471 0.3238,0.462434 0.90925,0.462434 0.26166,0 0.51678,-0.08594 0.25839,-0.09008 0.5135,-0.265999 v 0.695702 q -0.25184,0.147323 -0.52331,0.220985 -0.2682,0.07363 -0.57238,0.07363 -0.82749,0 -1.31483,-0.650689 -0.48733,-0.650688 -0.48733,-1.755629 0,-1.121313 0.4906,-1.76382 0.49388,-0.642498 1.35081,-0.642498 0.27801,0 0.54294,0.07363 0.26493,0.0696 0.5135,0.212794 z m 2.46613,0.351947 q -0.48407,0 -0.76535,0.47472 -0.28128,0.470613 -0.28128,1.293185 0,0.822572 0.27801,1.297291 0.28128,0.470625 0.76862,0.470625 0.48079,0 0.76207,-0.474721 0.28129,-0.474719 0.28129,-1.293195 0,-0.814381 -0.28129,-1.28909 -0.28128,-0.478815 -0.76207,-0.478815 z m 0,-0.638413 q 0.78497,0 1.23306,0.638413 0.44808,0.638412 0.44808,1.767905 0,1.125407 -0.44808,1.767916 -0.44809,0.638413 -1.23306,0.638413 -0.78825,0 -1.23634,-0.638413 -0.44481,-0.642509 -0.44481,-1.767916 0,-1.129493 0.44481,-1.767905 0.44809,-0.638413 1.23634,-0.638413 z m 2.67871,-1.67378602 h 0.60182 V 6.7017378 h -0.60182 z m 3.28054,2.31219902 q -0.48407,0 -0.76535,0.47472 -0.28128,0.470613 -0.28128,1.293185 0,0.822572 0.27801,1.297291 0.28128,0.470625 0.76862,0.470625 0.48079,0 0.76207,-0.474721 0.28129,-0.474719 0.28129,-1.293195 0,-0.814381 -0.28129,-1.28909 -0.28128,-0.478815 -0.76207,-0.478815 z m 0,-0.638413 q 0.78497,0 1.23305,0.638413 0.4481,0.638412 0.4481,1.767905 0,1.125407 -0.4481,1.767916 -0.44808,0.638413 -1.23305,0.638413 -0.78825,0 -1.23634,-0.638413 -0.44481,-0.642509 -0.44481,-1.767916 0,-1.129493 0.44481,-1.767905 0.44809,-0.638413 1.23634,-0.638413 z m 4.80142,0.81438 q -0.10141,-0.07363 -0.22242,-0.106412 -0.11774,-0.03682 -0.26165,-0.03682 -0.51023,0 -0.78498,0.417429 -0.27147,0.413334 -0.27147,1.190889 v 2.414498 h -0.60507 v -4.583461 h 0.60507 v 0.712074 q 0.18971,-0.417429 0.49388,-0.617947 0.30418,-0.204614 0.73919,-0.204614 0.0622,0 0.13737,0.01231 0.0753,0.008 0.1668,0.02865 z" />
  <path
     id="text1-5"
     style="white-space:pre;fill-opacity:1;stroke-width:0.624365"
     class="error"
     d="m 61.815585,131.95322 h 4.130917 v 0.69571 h -1.733481 v 5.41424 h -0.663956 v -5.41424 h -1.73348 z m 6.737681,3.62994 v 0.36833 h -2.767029 q 0.03924,0.77754 0.372862,1.18678 0.336887,0.40515 0.935425,0.40515 0.3467,0 0.670497,-0.1064 0.327074,-0.10643 0.647604,-0.31923 v 0.71208 q -0.323802,0.17187 -0.663954,0.26192 -0.340156,0.0901 -0.690122,0.0901 -0.876553,0 -1.390059,-0.63841 -0.510231,-0.63841 -0.510231,-1.72699 0,-1.12541 0.484068,-1.78427 0.487339,-0.66297 1.311559,-0.66297 0.739182,0 1.167649,0.59748 0.431731,0.59339 0.431731,1.6165 z m -0.601811,-0.22098 q -0.0066,-0.61795 -0.278013,-0.98627 -0.268199,-0.36832 -0.713013,-0.36832 -0.503695,0 -0.807872,0.35604 -0.300905,0.35604 -0.346693,1.00265 z m 4.516867,-1.88249 -1.324643,2.23034 1.393324,2.35314 h -0.709745 l -1.066256,-1.80066 -1.066252,1.80066 h -0.709748 l 1.422764,-2.39815 -1.301746,-2.18533 h 0.709743 l 0.971407,1.63285 0.971401,-1.63285 z m 1.514342,-1.30138 v 1.30138 h 1.2396 v 0.58521 h -1.2396 v 2.48816 q 0,0.56067 0.121013,0.72027 0.12429,0.1596 0.500423,0.1596 h 0.618164 v 0.63024 H 74.6041 q -0.696665,0 -0.961594,-0.32332 -0.264928,-0.32739 -0.264928,-1.18679 v -2.48816 h -0.441545 v -0.58521 h 0.441545 v -1.30138 z m 6.796554,1.47735 v 0.70388 q -0.255115,-0.17598 -0.513501,-0.26191 -0.255122,-0.0901 -0.516779,-0.0901 -0.585455,0 -0.909257,0.46654 -0.323802,0.46243 -0.323802,1.30137 0,0.83893 0.323802,1.30547 0.323802,0.46243 0.909257,0.46243 0.261657,0 0.516779,-0.0859 0.258386,-0.0901 0.513501,-0.26601 v 0.69571 q -0.251843,0.14732 -0.523314,0.22099 -0.268201,0.0736 -0.572376,0.0736 -0.827497,0 -1.31483,-0.65069 -0.487338,-0.65068 -0.487338,-1.75563 0,-1.12131 0.490608,-1.76382 0.493876,-0.6425 1.350808,-0.6425 0.278011,0 0.542941,0.0736 0.264922,0.0696 0.513501,0.2128 z m 2.466124,0.35193 q -0.484067,0 -0.765352,0.47473 -0.281278,0.47061 -0.281278,1.29319 0,0.82257 0.278007,1.29729 0.281284,0.47062 0.768623,0.47062 0.480791,0 0.762076,-0.47471 0.281284,-0.47473 0.281284,-1.2932 0,-0.81438 -0.281284,-1.28909 -0.281285,-0.47883 -0.762076,-0.47883 z m 0,-0.6384 q 0.784973,0 1.233059,0.6384 0.448086,0.63843 0.448086,1.76792 0,1.12541 -0.448086,1.76791 -0.448086,0.63841 -1.233059,0.63841 -0.788244,0 -1.236337,-0.63841 -0.444815,-0.6425 -0.444815,-1.76791 0,-1.12949 0.444815,-1.76792 0.448093,-0.6384 1.236337,-0.6384 z m 2.678715,-1.67379 h 0.601816 v 6.36777 h -0.601816 z m 3.280535,2.31219 q -0.484067,0 -0.765352,0.47473 -0.281277,0.47061 -0.281277,1.29319 0,0.82257 0.278007,1.29729 0.281283,0.47062 0.768622,0.47062 0.480797,0 0.762076,-0.47471 0.281284,-0.47473 0.281284,-1.2932 0,-0.81438 -0.281284,-1.28909 -0.281279,-0.47883 -0.762076,-0.47883 z m 0,-0.6384 q 0.784973,0 1.233062,0.6384 0.448093,0.63843 0.448093,1.76792 0,1.12541 -0.448093,1.76791 -0.448089,0.63841 -1.233062,0.63841 -0.788244,0 -1.236335,-0.63841 -0.444816,-0.6425 -0.444816,-1.76791 0,-1.12949 0.444816,-1.76792 0.448091,-0.6384 1.236335,-0.6384 z m 4.801418,0.81437 q -0.101412,-0.0736 -0.222414,-0.1064 -0.117748,-0.0368 -0.261656,-0.0368 -0.510231,0 -0.784968,0.41742 -0.271472,0.41335 -0.271472,1.1909 v 2.41451 h -0.605083 v -4.58347 H 92.4655 v 0.71207 q 0.189702,-0.41743 0.493875,-0.61794 0.304184,-0.20462 0.739186,-0.20462 0.06215,0 0.137369,0.0123 0.07527,0.009 0.166805,0.0286 z" />
  <path
     id="text1-2"
     style="white-space:pre;fill-opacity:1;stroke-width:0.513698"
     class="error"
     d="m 117.16254,24.507368 h 3.44863 v 0.564114 h -1.44716 v 4.3901 h -0.55429 v -4.3901 h -1.44718 z m 5.62486,2.943331 v 0.29864 h -2.31001 q 0.0327,0.630478 0.31128,0.962308 0.28123,0.328518 0.78092,0.328518 0.28944,0 0.55976,-0.08628 0.27305,-0.08628 0.54063,-0.258836 v 0.577393 q -0.27032,0.139361 -0.55429,0.212373 -0.28397,0.07304 -0.57613,0.07304 -0.73178,0 -1.16047,-0.517656 -0.42597,-0.517655 -0.42597,-1.400328 0,-0.912524 0.40411,-1.446766 0.40686,-0.537568 1.09495,-0.537568 0.61709,0 0.9748,0.484473 0.36042,0.481145 0.36042,1.310723 z m -0.50242,-0.179193 q -0.005,-0.501061 -0.23209,-0.79971 -0.2239,-0.298639 -0.59525,-0.298639 -0.42049,0 -0.67443,0.288685 -0.25121,0.288698 -0.28944,0.812985 z m 3.77084,-1.526408 -1.10586,1.808471 1.16321,1.908013 h -0.59252 l -0.89016,-1.460048 -0.89014,1.460048 h -0.59252 l 1.18777,-1.944514 -1.08675,-1.77197 h 0.59253 l 0.81096,1.323997 0.81095,-1.323997 z m 1.26422,-1.055222 v 1.055222 h 1.03487 v 0.474512 h -1.03487 v 2.017524 q 0,0.454607 0.10104,0.584016 0.10376,0.129418 0.41776,0.129418 h 0.51607 v 0.511014 h -0.51607 q -0.5816,0 -0.80275,-0.262138 -0.22119,-0.26547 -0.22119,-0.96231 V 26.21961 h -0.36861 v -0.474512 h 0.36861 v -1.055222 z m 5.67401,1.197905 v 0.57075 q -0.21298,-0.142691 -0.4287,-0.212373 -0.21298,-0.07304 -0.43141,-0.07304 -0.48876,0 -0.75907,0.378283 -0.27032,0.374972 -0.27032,1.055225 0,0.680245 0.27032,1.058529 0.27031,0.374971 0.75907,0.374971 0.21843,0 0.43141,-0.06968 0.21572,-0.07304 0.4287,-0.215685 v 0.564109 q -0.21025,0.119456 -0.43689,0.179184 -0.22389,0.05971 -0.47784,0.05971 -0.69082,0 -1.09766,-0.527609 -0.40684,-0.527608 -0.40684,-1.423546 0,-0.909213 0.40957,-1.43019 0.41229,-0.520969 1.12771,-0.520969 0.23209,0 0.45325,0.05973 0.22118,0.05643 0.4287,0.172542 z m 2.05881,0.285376 q -0.40412,0 -0.63893,0.384924 -0.23484,0.381595 -0.23484,1.048574 0,0.66698 0.23209,1.051905 0.23483,0.381605 0.64168,0.381605 0.40137,0 0.63621,-0.384924 0.23483,-0.384927 0.23483,-1.048586 0,-0.660337 -0.23483,-1.045262 -0.23484,-0.388236 -0.63621,-0.388236 z m 0,-0.517655 q 0.65531,0 1.0294,0.517655 0.37408,0.517655 0.37408,1.433498 0,0.912535 -0.37408,1.43351 -0.37409,0.517655 -1.0294,0.517655 -0.65805,0 -1.03214,-0.517655 -0.37134,-0.520975 -0.37134,-1.43351 0,-0.915843 0.37134,-1.433498 0.37409,-0.517655 1.03214,-0.517655 z m 2.23627,-1.357187 h 0.50243 v 5.163267 h -0.50243 z m 2.73872,1.874842 q -0.40412,0 -0.63894,0.384924 -0.23482,0.381595 -0.23482,1.048574 0,0.66698 0.23209,1.051905 0.23482,0.381605 0.64167,0.381605 0.4014,0 0.6362,-0.384924 0.23483,-0.384927 0.23483,-1.048586 0,-0.660337 -0.23483,-1.045262 -0.2348,-0.388236 -0.6362,-0.388236 z m 0,-0.517655 q 0.65532,0 1.0294,0.517655 0.37409,0.517655 0.37409,1.433498 0,0.912535 -0.37409,1.43351 -0.37408,0.517655 -1.0294,0.517655 -0.65806,0 -1.03214,-0.517655 -0.37134,-0.520975 -0.37134,-1.43351 0,-0.915843 0.37134,-1.433498 0.37408,-0.517655 1.03214,-0.517655 z m 4.00838,0.660338 q -0.0846,-0.0597 -0.18567,-0.08629 -0.0983,-0.02986 -0.21844,-0.02986 -0.42596,0 -0.65532,0.338471 -0.22663,0.335151 -0.22663,0.96562 v 1.957796 h -0.50515 v -3.716484 h 0.50515 v 0.577384 q 0.15837,-0.338471 0.41231,-0.501061 0.25393,-0.165916 0.61709,-0.165916 0.0519,0 0.11468,0.01 0.0629,0.0067 0.13926,0.02322 z" />
  <path
     id="text1-7"
     style="white-space:pre;fill-opacity:1;stroke-width:0.44766"
     class="error"
     d="M 6.3935999,53.418738 H 9.4611967 V 53.90035 H 8.1739229 v 3.748047 H 7.6808739 V 53.90035 h -1.287274 z m 5.0033651,2.512871 v 0.254963 H 9.3421837 q 0.02914,0.538271 0.276886,0.821569 0.25017,0.280464 0.6946413,0.280464 0.257458,0 0.497906,-0.07366 0.242885,-0.07366 0.48091,-0.220974 v 0.492941 q -0.240455,0.118992 -0.49305,0.181313 -0.2526,0.06237 -0.512482,0.06237 -0.6509213,0 -1.0322493,-0.441949 -0.378894,-0.44194 -0.378894,-1.195521 0,-0.779074 0.359465,-1.235182 0.361896,-0.45894 0.9739573,-0.45894 0.548913,0 0.867089,0.413612 0.320602,0.410783 0.320602,1.119036 z m -0.446902,-0.152988 q -0.0048,-0.427779 -0.206451,-0.682751 -0.199164,-0.25497 -0.529481,-0.25497 -0.3740393,0 -0.5999193,0.246472 -0.22345,0.246468 -0.257453,0.694086 z m 3.3542,-1.303177 -0.983673,1.543982 1.034676,1.628971 h -0.527054 l -0.791794,-1.246523 -0.791794,1.246523 H 11.71757 l 1.056537,-1.660134 -0.96667,-1.512819 h 0.527053 l 0.721359,1.13037 0.721357,-1.13037 z m 1.124542,-0.900889 v 0.900889 h 0.920521 v 0.405122 h -0.920521 v 1.72246 q 0,0.388112 0.08987,0.498603 0.09228,0.110497 0.371612,0.110497 h 0.459046 v 0.436278 h -0.459046 q -0.517341,0 -0.714075,-0.223809 -0.196734,-0.226636 -0.196734,-0.821561 V 54.880571 H 14.65159 V 54.47545 h 0.327889 v -0.90089 z m 5.047083,1.022704 v 0.48728 q -0.189446,-0.121813 -0.381321,-0.181307 -0.189452,-0.06237 -0.383759,-0.06237 -0.434754,0 -0.675209,0.32296 -0.240453,0.32013 -0.240453,0.900888 0,0.580766 0.240453,0.903725 0.240455,0.320134 0.675209,0.320134 0.194307,0 0.383759,-0.0595 0.191875,-0.06237 0.381321,-0.184147 v 0.481613 q -0.187017,0.101985 -0.38861,0.152978 -0.199163,0.05096 -0.425042,0.05096 -0.614496,0 -0.976387,-0.450453 -0.361894,-0.450444 -0.361894,-1.215352 0,-0.776238 0.364323,-1.221013 0.366751,-0.444784 1.003103,-0.444784 0.206449,0 0.403186,0.05096 0.196729,0.04818 0.381321,0.147317 z m 1.831331,0.243641 q -0.359467,0 -0.568347,0.328628 -0.208875,0.325795 -0.208875,0.895228 0,0.569424 0.206446,0.898055 0.208881,0.325794 0.570776,0.325794 0.357031,0 0.565912,-0.32863 0.20888,-0.328621 0.20888,-0.895219 0,-0.563773 -0.20888,-0.892393 Q 22.66425,54.8409 22.307219,54.8409 Z m 0,-0.44194 q 0.582916,0 0.915662,0.44194 0.332747,0.441948 0.332747,1.223856 0,0.779074 -0.332747,1.223849 -0.332746,0.441948 -0.915662,0.441948 -0.585345,0 -0.918096,-0.441948 -0.330318,-0.444775 -0.330318,-1.223849 0,-0.781908 0.330318,-1.223856 0.332751,-0.44194 0.918096,-0.44194 z m 1.989199,-1.1587 h 0.446905 v 4.408137 h -0.446905 z m 2.436107,1.60064 q -0.359465,0 -0.568345,0.328628 -0.208878,0.325795 -0.208878,0.895228 0,0.569424 0.206448,0.898055 0.20888,0.325794 0.570775,0.325794 0.357037,0 0.565913,-0.32863 0.20888,-0.328621 0.20888,-0.895219 0,-0.563773 -0.20888,-0.892393 Q 27.089562,54.8409 26.732525,54.8409 Z m 0,-0.44194 q 0.582917,0 0.915663,0.44194 0.332751,0.441948 0.332751,1.223856 0,0.779074 -0.332751,1.223849 -0.332746,0.441948 -0.915663,0.441948 -0.585345,0 -0.918096,-0.441948 -0.330317,-0.444775 -0.330317,-1.223849 0,-0.781908 0.330317,-1.223856 0.332751,-0.44194 0.918096,-0.44194 z m 3.565505,0.563762 q -0.07529,-0.05096 -0.165162,-0.07366 -0.08744,-0.02548 -0.194304,-0.02548 -0.378895,0 -0.582917,0.288961 -0.201593,0.286134 -0.201593,0.824406 v 1.671466 h -0.449329 v -3.172946 h 0.449329 v 0.492941 q 0.140875,-0.288968 0.366753,-0.427779 0.225881,-0.141653 0.548914,-0.141653 0.04615,0 0.102014,0.0087 0.05586,0.0057 0.123868,0.01983 z" />
  <path
     id="text1-7-8"
     style="white-space:pre;fill-opacity:1;stroke-width:0.44766"
     class="error"
     d="m 6.4238255,79.017865 h 3.0675968 v 0.481612 H 8.2041485 v 3.748047 h -0.493049 v -3.748047 h -1.287274 z m 5.0033645,2.512871 v 0.254963 H 9.3724093 q 0.02914,0.538271 0.276886,0.821569 0.25017,0.280464 0.6946407,0.280464 0.257458,0 0.497906,-0.07366 0.242885,-0.07366 0.48091,-0.220974 v 0.492941 q -0.240455,0.118992 -0.49305,0.181313 -0.2526,0.06237 -0.512482,0.06237 -0.6509207,0 -1.0322487,-0.441949 -0.378894,-0.44194 -0.378894,-1.195521 0,-0.779074 0.359465,-1.235182 0.361896,-0.45894 0.9739567,-0.45894 0.548913,0 0.867089,0.413612 0.320602,0.410783 0.320602,1.119036 z m -0.446902,-0.152988 q -0.0048,-0.427779 -0.206451,-0.682751 -0.199164,-0.25497 -0.529481,-0.25497 -0.3740387,0 -0.5999187,0.246472 -0.22345,0.246468 -0.257453,0.694086 z m 3.3542,-1.303177 -0.983673,1.543982 1.034676,1.628971 h -0.527054 l -0.791794,-1.246523 -0.791794,1.246523 h -0.527054 l 1.056537,-1.660134 -0.96667,-1.512819 h 0.527053 l 0.721359,1.13037 0.721357,-1.13037 z m 1.124542,-0.900889 v 0.900889 h 0.920521 v 0.405122 H 15.45903 v 1.72246 q 0,0.388112 0.08987,0.498603 0.09228,0.110497 0.371612,0.110497 h 0.459046 v 0.436278 h -0.459046 q -0.517341,0 -0.714075,-0.223809 -0.196734,-0.226636 -0.196734,-0.821561 v -1.722463 h -0.327888 v -0.405121 h 0.327889 v -0.90089 z m 5.047083,1.022704 v 0.48728 q -0.189446,-0.121813 -0.381321,-0.181307 -0.189452,-0.06237 -0.383759,-0.06237 -0.434754,0 -0.675209,0.32296 -0.240453,0.32013 -0.240453,0.900888 0,0.580766 0.240453,0.903725 0.240455,0.320134 0.675209,0.320134 0.194307,0 0.383759,-0.0595 0.191875,-0.06237 0.381321,-0.184147 v 0.481613 q -0.187017,0.101985 -0.38861,0.152978 -0.199163,0.05096 -0.425042,0.05096 -0.614496,0 -0.976387,-0.450453 -0.361894,-0.450444 -0.361894,-1.215352 0,-0.776238 0.364323,-1.221013 0.366751,-0.444784 1.003103,-0.444784 0.206449,0 0.403186,0.05096 0.196729,0.04818 0.381321,0.147317 z m 1.831331,0.243641 q -0.359467,0 -0.568347,0.328628 -0.208875,0.325795 -0.208875,0.895228 0,0.569424 0.206446,0.898055 0.208881,0.325794 0.570776,0.325794 0.357031,0 0.565912,-0.32863 0.20888,-0.328621 0.20888,-0.895219 0,-0.563773 -0.20888,-0.892393 -0.208881,-0.331463 -0.565912,-0.331463 z m 0,-0.44194 q 0.582916,0 0.915662,0.44194 0.332747,0.441948 0.332747,1.223856 0,0.779074 -0.332747,1.223849 -0.332746,0.441948 -0.915662,0.441948 -0.585345,0 -0.918096,-0.441948 -0.330318,-0.444775 -0.330318,-1.223849 0,-0.781908 0.330318,-1.223856 0.332751,-0.44194 0.918096,-0.44194 z m 1.989199,-1.1587 h 0.446905 v 4.408137 h -0.446905 z m 2.436107,1.60064 q -0.359465,0 -0.568345,0.328628 -0.208878,0.325795 -0.208878,0.895228 0,0.569424 0.206448,0.898055 0.20888,0.325794 0.570775,0.325794 0.357037,0 0.565913,-0.32863 0.20888,-0.328621 0.20888,-0.895219 0,-0.563773 -0.20888,-0.892393 -0.208876,-0.331463 -0.565913,-0.331463 z m 0,-0.44194 q 0.582917,0 0.915663,0.44194 0.332751,0.441948 0.332751,1.223856 0,0.779074 -0.332751,1.223849 -0.332746,0.441948 -0.915663,0.441948 -0.585345,0 -0.918096,-0.441948 -0.330317,-0.444775 -0.330317,-1.223849 0,-0.781908 0.330317,-1.223856 0.332751,-0.44194 0.918096,-0.44194 z m 3.565505,0.563762 q -0.07529,-0.05096 -0.165162,-0.07366 -0.08744,-0.02548 -0.194304,-0.02548 -0.378895,0 -0.582917,0.288961 -0.201593,0.286134 -0.201593,0.824406 v 1.671466 H 28.73495 v -3.172946 h 0.449329 v 0.492941 q 0.140875,-0.288968 0.366753,-0.427779 0.225881,-0.141653 0.548914,-0.141653 0.04615,0 0.102014,0.0087 0.05586,0.0057 0.123868,0.01983 z" />
  <path
     id="text1-7-6"
     style="white-space:pre;fill-opacity:1;stroke-width:0.44766"
     class="error"
     d="m 6.2700645,97.717236 h 3.067597 v 0.481612 h -1.287274 v 3.748052 h -0.493049 v -3.748052 h -1.287274 z m 5.0033645,2.512874 v 0.25496 H 9.2186485 q 0.02914,0.53827 0.276886,0.82157 0.25017,0.28046 0.6946405,0.28046 0.257458,0 0.497906,-0.0737 0.242885,-0.0737 0.48091,-0.22097 v 0.49294 q -0.240455,0.11899 -0.49305,0.18131 -0.2526,0.0624 -0.512482,0.0624 -0.6509205,0 -1.0322485,-0.44195 -0.378894,-0.44194 -0.378894,-1.19552 0,-0.779071 0.359465,-1.235179 0.361896,-0.45894 0.9739565,-0.45894 0.548913,0 0.867089,0.413612 0.320602,0.410783 0.320602,1.119037 z m -0.446902,-0.15299 q -0.0048,-0.42778 -0.206451,-0.682752 -0.199164,-0.25497 -0.529481,-0.25497 -0.3740385,0 -0.5999185,0.246472 -0.22345,0.246468 -0.257453,0.69409 z m 3.3542,-1.303178 -0.983673,1.543978 1.034676,1.62898 h -0.527054 l -0.791794,-1.24653 -0.791794,1.24653 h -0.527054 l 1.056537,-1.66014 -0.96667,-1.512818 h 0.527053 l 0.721359,1.13037 0.721357,-1.13037 z m 1.124542,-0.900889 v 0.900889 h 0.920521 v 0.405122 h -0.920521 v 1.722456 q 0,0.38812 0.08987,0.49861 0.09228,0.11049 0.371612,0.11049 h 0.459046 v 0.43628 h -0.459046 q -0.517341,0 -0.714075,-0.22381 -0.196734,-0.22663 -0.196734,-0.82156 v -1.722461 h -0.327888 v -0.405121 h 0.327889 v -0.90089 z m 5.047083,1.022704 v 0.48728 q -0.189446,-0.121813 -0.381321,-0.181307 -0.189452,-0.06237 -0.383759,-0.06237 -0.434754,0 -0.675209,0.32296 -0.240453,0.32013 -0.240453,0.90089 0,0.58076 0.240453,0.90372 0.240455,0.32014 0.675209,0.32014 0.194307,0 0.383759,-0.0595 0.191875,-0.0624 0.381321,-0.18415 v 0.48161 q -0.187017,0.10199 -0.38861,0.15298 -0.199163,0.051 -0.425042,0.051 -0.614496,0 -0.976387,-0.45045 -0.361894,-0.45045 -0.361894,-1.21535 0,-0.776242 0.364323,-1.221017 0.366751,-0.444784 1.003103,-0.444784 0.206449,0 0.403186,0.05096 0.196729,0.04818 0.381321,0.147317 z m 1.831331,0.243641 q -0.359467,0 -0.568347,0.328628 -0.208875,0.325795 -0.208875,0.895224 0,0.56943 0.206446,0.89806 0.208881,0.32579 0.570776,0.32579 0.357031,0 0.565912,-0.32863 0.20888,-0.32862 0.20888,-0.89522 0,-0.563769 -0.20888,-0.892389 -0.208881,-0.331463 -0.565912,-0.331463 z m 0,-0.44194 q 0.582916,0 0.915662,0.44194 0.332747,0.441948 0.332747,1.223852 0,0.77908 -0.332747,1.22385 -0.332746,0.44195 -0.915662,0.44195 -0.585345,0 -0.918096,-0.44195 -0.330318,-0.44477 -0.330318,-1.22385 0,-0.781904 0.330318,-1.223852 0.332751,-0.44194 0.918096,-0.44194 z m 1.989199,-1.1587 h 0.446905 v 4.408142 h -0.446905 z m 2.436107,1.60064 q -0.359465,0 -0.568345,0.328628 -0.208878,0.325795 -0.208878,0.895224 0,0.56943 0.206448,0.89806 0.20888,0.32579 0.570775,0.32579 0.357037,0 0.565913,-0.32863 0.20888,-0.32862 0.20888,-0.89522 0,-0.563769 -0.20888,-0.892389 -0.208876,-0.331463 -0.565913,-0.331463 z m 0,-0.44194 q 0.582917,0 0.915663,0.44194 0.332751,0.441948 0.332751,1.223852 0,0.77908 -0.332751,1.22385 -0.332746,0.44195 -0.915663,0.44195 -0.585345,0 -0.918096,-0.44195 -0.330317,-0.44477 -0.330317,-1.22385 0,-0.781904 0.330317,-1.223852 0.332751,-0.44194 0.918096,-0.44194 z m 3.565505,0.563762 q -0.07529,-0.05096 -0.165162,-0.07366 -0.08744,-0.02548 -0.194304,-0.02548 -0.378895,0 -0.582917,0.288961 -0.201593,0.286134 -0.201593,0.824409 v 1.67146 h -0.449329 v -3.172943 h 0.449329 v 0.492941 q 0.140875,-0.288968 0.366753,-0.427779 0.225881,-0.141653 0.548914,-0.141653 0.04615,0 0.102014,0.0087 0.05586,0.0057 0.123868,0.01983 z" />
  <path
     id="text1-7-7"
     style="white-space:pre;fill-opacity:1;stroke-width:0.44098"
     class="error"
     d="m 230.15363,28.419378 h 3.18212 v 0.450528 h -1.33534 v 3.506143 h -0.51145 v -3.506143 h -1.33533 z m 5.19014,2.350687 v 0.238508 h -2.13148 q 0.0302,0.503529 0.28721,0.768543 0.25951,0.262363 0.72057,0.262363 0.26708,0 0.5165,-0.0689 0.25195,-0.0689 0.49885,-0.206712 v 0.461126 q -0.24943,0.111315 -0.51145,0.16961 -0.26203,0.05835 -0.5316,0.05835 -0.67522,0 -1.07079,-0.413425 -0.39304,-0.413416 -0.39304,-1.11836 0,-0.728792 0.37289,-1.155463 0.37539,-0.429318 1.01031,-0.429318 0.5694,0 0.89945,0.386916 0.33258,0.384271 0.33258,1.046812 z m -0.46359,-0.143115 q -0.005,-0.400169 -0.21417,-0.638684 -0.20658,-0.238515 -0.54923,-0.238515 -0.38801,0 -0.62232,0.230565 -0.23179,0.23056 -0.26706,0.649288 z m 3.4794,-1.219068 -1.02039,1.444332 1.0733,1.523835 h -0.54673 l -0.82134,-1.166071 -0.82135,1.166071 h -0.54674 l 1.09598,-1.552986 -1.00275,-1.415181 h 0.54672 l 0.74829,1.057414 0.74828,-1.057414 z m 1.16653,-0.842744 v 0.842744 h 0.95488 v 0.378975 h -0.95488 v 1.611291 q 0,0.363062 0.0933,0.466422 0.0957,0.103367 0.38548,0.103367 h 0.47616 v 0.408119 h -0.47616 q -0.53665,0 -0.74074,-0.209364 -0.20407,-0.212008 -0.20407,-0.768536 v -1.611294 h -0.34016 v -0.378973 h 0.34012 v -0.842745 z m 5.23547,0.956697 v 0.455831 q -0.19652,-0.113947 -0.39555,-0.169605 -0.19651,-0.05835 -0.39808,-0.05835 -0.45098,0 -0.70042,0.302116 -0.24943,0.299468 -0.24943,0.842743 0,0.543282 0.24943,0.845398 0.24944,0.299472 0.70042,0.299472 0.20157,0 0.39808,-0.05566 0.19903,-0.05835 0.39555,-0.172261 v 0.450529 q -0.194,0.09541 -0.40311,0.143104 -0.2066,0.04767 -0.44091,0.04767 -0.63743,0 -1.01283,-0.421379 -0.37541,-0.421373 -0.37541,-1.136912 0,-0.726139 0.37792,-1.142208 0.38044,-0.416076 1.04055,-0.416076 0.21416,0 0.41824,0.04767 0.20407,0.04506 0.39555,0.137809 z m 1.89969,0.227916 q -0.37289,0 -0.58955,0.307418 -0.21667,0.304768 -0.21667,0.837449 0,0.532673 0.21414,0.840093 0.21669,0.304768 0.59208,0.304768 0.37036,0 0.58704,-0.307421 0.21668,-0.307411 0.21668,-0.83744 0,-0.527386 -0.21668,-0.834797 -0.21668,-0.31007 -0.58704,-0.31007 z m 0,-0.413416 q 0.60468,0 0.94984,0.413416 0.34517,0.413425 0.34517,1.144867 0,0.728792 -0.34517,1.144861 -0.34516,0.413424 -0.94984,0.413424 -0.60719,0 -0.95237,-0.413424 -0.34264,-0.416069 -0.34264,-1.144861 0,-0.731442 0.34264,-1.144867 0.34518,-0.413416 0.95237,-0.413416 z m 2.06346,-1.083916 h 0.46358 v 4.12363 h -0.46358 z m 2.52704,1.497332 q -0.37288,0 -0.58957,0.307418 -0.21667,0.304768 -0.21667,0.837449 0,0.532673 0.21416,0.840093 0.21668,0.304768 0.59208,0.304768 0.37037,0 0.58704,-0.307421 0.21667,-0.307411 0.21667,-0.83744 0,-0.527386 -0.21667,-0.834797 -0.21667,-0.31007 -0.58704,-0.31007 z m 0,-0.413416 q 0.60467,0 0.94984,0.413416 0.34518,0.413425 0.34518,1.144867 0,0.728792 -0.34518,1.144861 -0.34517,0.413424 -0.94984,0.413424 -0.6072,0 -0.95237,-0.413424 -0.34265,-0.416069 -0.34265,-1.144861 0,-0.731442 0.34265,-1.144867 0.34517,-0.413416 0.95237,-0.413416 z m 3.69859,0.527376 q -0.0781,-0.04767 -0.17132,-0.0689 -0.0907,-0.02384 -0.20155,-0.02384 -0.39305,0 -0.60468,0.270312 -0.20912,0.267666 -0.20912,0.771198 v 1.563587 h -0.4661 v -2.96816 h 0.4661 v 0.461126 q 0.14613,-0.270318 0.38044,-0.40017 0.23431,-0.132511 0.5694,-0.132511 0.0479,0 0.10587,0.0082 0.058,0.0054 0.12847,0.01856 z" />
  <path
     id="text1-7-7-2"
     style="white-space:pre;fill-opacity:1;stroke-width:0.443378"
     class="error"
     d="m 231.16357,15.482796 h 3.01144 v 0.481255 h -1.26372 v 3.745269 h -0.48401 v -3.745269 h -1.26371 z m 4.91176,2.511009 v 0.254774 h -2.01716 q 0.0285,0.537871 0.27181,0.82096 0.2456,0.280255 0.68192,0.280255 0.25275,0 0.4888,-0.0736 0.23843,-0.0736 0.4721,-0.220811 v 0.492575 q -0.23606,0.118898 -0.48402,0.181179 -0.24798,0.06233 -0.50309,0.06233 -0.63901,0 -1.01336,-0.441622 -0.37195,-0.441611 -0.37195,-1.194634 0,-0.778496 0.35288,-1.234267 0.35526,-0.4586 0.95612,-0.4586 0.53887,0 0.85121,0.413305 0.31474,0.41048 0.31474,1.118206 z m -0.43873,-0.152876 q -0.004,-0.427461 -0.20267,-0.682244 -0.19552,-0.254782 -0.51979,-0.254782 -0.36718,0 -0.58893,0.24629 -0.21936,0.246285 -0.25274,0.693572 z m 3.29279,-1.302211 -0.96566,1.542839 1.01573,1.627763 h -0.51741 l -0.77729,-1.245599 -0.77729,1.245599 h -0.51741 l 1.03719,-1.658903 -0.94896,-1.511699 h 0.51739 l 0.70816,1.129534 0.70814,-1.129534 z m 1.10395,-0.90022 v 0.90022 h 0.90367 v 0.404822 h -0.90367 v 1.721185 q 0,0.387824 0.0882,0.498232 0.0906,0.110415 0.3648,0.110415 h 0.45063 v 0.435956 h -0.45063 q -0.50786,0 -0.701,-0.223644 -0.19313,-0.226469 -0.19313,-0.820952 V 16.94355 h -0.32192 v -0.404822 h 0.32188 v -0.90022 z m 4.95467,1.021946 v 0.486919 q -0.18598,-0.121722 -0.37433,-0.181174 -0.18598,-0.06233 -0.37674,-0.06233 -0.42678,0 -0.66285,0.322721 -0.23604,0.319894 -0.23604,0.900221 0,0.580336 0.23604,0.903055 0.23607,0.319898 0.66285,0.319898 0.19076,0 0.37674,-0.05946 0.18835,-0.06232 0.37433,-0.18401 v 0.481256 q -0.18359,0.101903 -0.38149,0.152866 -0.19552,0.05093 -0.41725,0.05093 -0.60325,0 -0.95852,-0.45012 -0.35527,-0.45011 -0.35527,-1.214451 0,-0.775662 0.35765,-1.220107 0.36004,-0.444456 0.98475,-0.444456 0.20266,0 0.3958,0.05092 0.19313,0.04815 0.37433,0.147208 z m 1.79781,0.243459 q -0.3529,0 -0.55795,0.328386 -0.20505,0.325553 -0.20505,0.894563 0,0.569004 0.20266,0.89739 0.20507,0.325552 0.56034,0.325552 0.35049,0 0.55554,-0.328385 0.20506,-0.328379 0.20506,-0.894557 0,-0.563355 -0.20506,-0.89173 -0.20505,-0.331219 -0.55554,-0.331219 z m 0,-0.441611 q 0.57223,0 0.89888,0.441611 0.32666,0.441621 0.32666,1.222949 0,0.778496 -0.32666,1.222942 -0.32665,0.441621 -0.89888,0.441621 -0.57463,0 -0.9013,-0.441621 -0.32425,-0.444446 -0.32425,-1.222942 0,-0.781328 0.32425,-1.222949 0.32667,-0.441611 0.9013,-0.441611 z m 1.95277,-1.157842 h 0.43871 v 4.40487 h -0.43871 z m 2.3915,1.599453 q -0.35288,0 -0.55794,0.328386 -0.20506,0.325553 -0.20506,0.894563 0,0.569004 0.20268,0.89739 0.20505,0.325552 0.56032,0.325552 0.35049,0 0.55556,-0.328385 0.20505,-0.328379 0.20505,-0.894557 0,-0.563355 -0.20505,-0.89173 -0.20507,-0.331219 -0.55556,-0.331219 z m 0,-0.441611 q 0.57224,0 0.8989,0.441611 0.32666,0.441621 0.32666,1.222949 0,0.778496 -0.32666,1.222942 -0.32666,0.441621 -0.8989,0.441621 -0.57463,0 -0.90129,-0.441621 -0.32428,-0.444446 -0.32428,-1.222942 0,-0.781328 0.32428,-1.222949 0.32666,-0.441611 0.90129,-0.441611 z m 3.50022,0.563344 q -0.0739,-0.05093 -0.16214,-0.0736 -0.0858,-0.02546 -0.19073,-0.02546 -0.37198,0 -0.57225,0.288747 -0.19791,0.285922 -0.19791,0.823795 v 1.670227 h -0.4411 v -3.170594 h 0.4411 v 0.492576 q 0.1383,-0.288754 0.36005,-0.427463 0.22174,-0.141552 0.53885,-0.141552 0.0454,0 0.10015,0.0087 0.0549,0.0058 0.1216,0.01982 z" />
</svg>
